HIERARCHY
ROOT Hips
{
	OFFSET 0.000000 0.000000 0.000000
	CHANNELS 6 Xposition Yposition Zposition Zrotation Yrotation Xrotation 
	JOINT LHipJoint
	{
		OFFSET 0.000000 0.000000 0.000000
		CHANNELS 3 Zrotation Yrotation Xrotation
		JOINT LeftUpLeg
		{
			OFFSET 1.363060 -1.794630 0.839290
			CHANNELS 3 Zrotation Yrotation Xrotation
			JOINT LeftLeg
			{
				OFFSET 2.448110 -6.726130 0.000000
				CHANNELS 3 Zrotation Yrotation Xrotation
				JOINT LeftFoot
				{
					OFFSET 2.562200 -7.039590 0.000000
					CHANNELS 3 Zrotation Yrotation Xrotation
					JOINT LeftToeBase
					{
						OFFSET 0.157640 -0.433110 2.322550
						CHANNELS 3 Zrotation Yrotation Xrotation
						End Site
						{
							OFFSET 0.000000 0.000000 0.000000
						}
					}
				}
			}
		}
	}
	JOINT RHipJoint
	{
		OFFSET 0.000000 0.000000 0.000000
		CHANNELS 3 Zrotation Yrotation Xrotation
		JOINT RightUpLeg
		{
			OFFSET -1.305520 -1.794630 0.839290
			CHANNELS 3 Zrotation Yrotation Xrotation
			JOINT RightLeg
			{
				OFFSET -2.542530 -6.985550 0.000000
				CHANNELS 3 Zrotation Yrotation Xrotation
				JOINT RightFoot
				{
					OFFSET -2.568260 -7.056230 0.000000
					CHANNELS 3 Zrotation Yrotation Xrotation
					JOINT RightToeBase
					{
						OFFSET -0.164730 -0.452590 2.363150
						CHANNELS 3 Zrotation Yrotation Xrotation
						End Site
						{
							OFFSET 0.000000 0.000000 0.000000
						}
					}
				}
			}
		}
	}
	JOINT LowerBack
	{
		OFFSET 0.000000 0.000000 0.000000
		CHANNELS 3 Zrotation Yrotation Xrotation
		JOINT Spine
		{
			OFFSET 0.028270 2.035590 -0.193380
			CHANNELS 3 Zrotation Yrotation Xrotation
			JOINT Spine1
			{
				OFFSET 0.056720 2.048850 -0.042750
				CHANNELS 3 Zrotation Yrotation Xrotation
				JOINT Neck
				{
					OFFSET 0.000000 0.000000 0.000000
					CHANNELS 3 Zrotation Yrotation Xrotation
					JOINT Neck1
					{
						OFFSET -0.054170 1.746240 0.172020
						CHANNELS 3 Zrotation Yrotation Xrotation
						JOINT Head
						{
							OFFSET 0.104070 1.761360 -0.123970
							CHANNELS 3 Zrotation Yrotation Xrotation
							End Site
							{
								OFFSET 0.000000 0.000000 0.000000
							}
						}
					}
				}
				JOINT LeftShoulder
				{
					OFFSET 0.000000 0.000000 0.000000
					CHANNELS 3 Zrotation Yrotation Xrotation
					JOINT LeftArm
					{
						OFFSET 3.362410 1.200890 -0.311210
						CHANNELS 3 Zrotation Yrotation Xrotation
						JOINT LeftForeArm
						{
							OFFSET 4.983000 -0.000000 -0.000000
							CHANNELS 3 Zrotation Yrotation Xrotation
							JOINT LeftHand
							{
								OFFSET 3.483560 -0.000000 -0.000000
								CHANNELS 3 Zrotation Yrotation Xrotation
								JOINT LeftFingerBase
								{
									OFFSET 0.000000 0.000000 0.000000
									CHANNELS 3 Zrotation Yrotation Xrotation
									JOINT LeftHandIndex1
									{
										OFFSET 0.715260 -0.000000 -0.000000
										CHANNELS 3 Zrotation Yrotation Xrotation
										End Site
										{
											OFFSET 0.000000 0.000000 0.000000
										}
									}
								}
								JOINT LThumb
								{
									OFFSET 0.000000 0.000000 0.000000
									CHANNELS 3 Zrotation Yrotation Xrotation
									End Site
									{
										OFFSET 0.000000 0.000000 0.000000
									}
								}
							}
						}
					}
				}
				JOINT RightShoulder
				{
					OFFSET 0.000000 0.000000 0.000000
					CHANNELS 3 Zrotation Yrotation Xrotation
					JOINT RightArm
					{
						OFFSET -3.136600 1.374050 -0.404650
						CHANNELS 3 Zrotation Yrotation Xrotation
						JOINT RightForeArm
						{
							OFFSET -5.241900 -0.000000 -0.000000
							CHANNELS 3 Zrotation Yrotation Xrotation
							JOINT RightHand
							{
								OFFSET -3.444170 -0.000000 -0.000000
								CHANNELS 3 Zrotation Yrotation Xrotation
								JOINT RightFingerBase
								{
									OFFSET 0.000000 0.000000 0.000000
									CHANNELS 3 Zrotation Yrotation Xrotation
									JOINT RightHandIndex1
									{
										OFFSET -0.622530 -0.000000 -0.000000
										CHANNELS 3 Zrotation Yrotation Xrotation
										End Site
										{
											OFFSET 0.000000 0.000000 0.000000
										}
									}
								}
								JOINT RThumb
								{
									OFFSET 0.000000 0.000000 0.000000
									CHANNELS 3 Zrotation Yrotation Xrotation
									End Site
									{
										OFFSET 0.000000 0.000000 0.000000
									}
								}
							}
						}
					}
				}
			}
		}
	}
}
MOTION
Frames: 4
Frame Time: 0.008333
10.509277 17.452114 -16.625952 -5.797832 -4.344445 1.855625 14.275539 4.205187 3.856964 -23.287370 -22.177373 -34.178935 1.318972 12.213554 30.840219 -1.488678 12.264571 -2.670280 0.322700 -3.651300 -10.097600 -18.616734 -5.942939 -7.937431 39.355979 -12.993220 31.625803 1.317228 -0.113583 9.367871 0.622157 1.469536 8.047140 -1.078300 6.600300 -18.536500 6.675033 2.959365 3.153520 0.287380 3.701244 -3.112017 -1.399936 2.262364 6.298900 -9.190209 -3.623235 -17.382830 2.507026 -3.050256 9.309348 4.117800 -2.278800 11.902600 -5.703217 -4.769216 0.059116 -76.918018 11.189031 28.480145 9.452546 -19.511380 -2.384480 -0.839213 -1.593621 7.161477 14.937334 27.745330 7.791200 -7.125000 0.000000 0.000000 -17.626900 59.425100 -6.330900 4.562616 5.157936 1.225011 70.275380 -6.107909 43.224295 -28.979702 36.520737 -11.061427 -0.636952 -0.077555 -11.317305 -18.296580 16.678796 -5.223400 7.125000 0.000000 0.000000 6.753900 -12.604200 5.154100 
10.522141 17.467698 -16.411436 -5.338563 -4.579481 1.838401 14.343633 4.361235 3.805680 -24.317924 -21.480145 -33.895702 1.482114 12.433481 31.633686 -1.260166 10.934611 -2.241424 0.251700 -3.227900 -8.913800 -18.669165 -6.274445 -7.673687 39.704316 -11.823099 28.662897 0.340596 -2.180323 15.207463 0.596575 1.510880 8.152011 -1.273100 7.151200 -20.164100 6.142146 3.048631 3.114823 0.224349 3.803538 -3.079744 -1.297505 2.326513 6.365092 -9.278597 -3.663614 -17.536849 2.571001 -3.058587 9.252605 4.172600 -2.275200 11.912700 -5.727960 -4.754868 0.069650 -76.957585 10.895914 28.351645 9.317706 -19.300397 -2.335943 -0.855225 -1.580969 7.571004 14.872252 27.842236 7.781400 -7.125000 0.000000 0.000000 -17.753300 59.496700 -6.408700 4.551038 5.207239 1.227934 70.493468 -6.181375 43.068834 -28.625762 36.212274 -10.817837 -0.621379 -0.066116 -11.361853 -17.871884 16.105780 -4.922300 7.125000 0.000000 0.000000 7.006300 -13.252700 5.253800 
10.536470 17.468953 -16.197966 -4.727239 -4.406038 1.961232 14.407844 4.469864 3.784065 -25.532066 -20.968643 -33.851403 1.625436 12.654690 32.347657 -1.104382 10.152483 -0.984861 0.207400 -2.932200 -8.090000 -18.663665 -6.488363 -7.485423 39.393062 -11.355100 26.485091 -0.510011 -3.687539 19.636284 0.578765 0.869775 8.889309 -1.066900 6.566500 -18.437100 5.488442 3.026940 2.873718 0.157127 3.749579 -3.069727 -1.204091 2.298812 6.438358 -9.276652 -3.663627 -17.575162 2.554383 -3.050239 9.155277 4.159800 -2.263300 11.845300 -5.758300 -4.752437 0.087780 -76.893755 10.514293 28.485665 9.146809 -19.055317 -2.287964 -0.873388 -1.607874 7.635542 14.524653 28.568231 7.780700 -7.125000 0.000000 0.000000 -18.655400 60.131700 -7.032500 4.532710 5.227857 1.222172 70.767714 -6.417110 42.673899 -28.448252 36.075777 -10.712724 -0.626672 -0.055950 -11.183554 -17.487906 16.026876 -4.779600 7.125000 0.000000 0.000000 7.263200 -13.384200 5.429400 
10.548498 17.474496 -15.986484 -4.223536 -4.234478 2.119157 14.461940 4.558733 3.766336 -26.559315 -20.619919 -33.686091 1.742625 12.826804 32.926958 -0.990260 9.573043 -0.056067 0.188400 -2.795700 -7.710400 -18.658247 -6.671127 -7.271032 39.142585 -10.887937 24.420699 -1.337934 -5.011510 23.682704 0.545293 0.053718 9.714055 -0.888300 6.007700 -16.806800 4.918358 3.001143 2.715825 0.103623 3.700960 -3.144620 -1.133932 2.271186 6.222618 -9.179801 -3.592942 -17.464924 2.495911 -2.995681 9.172835 4.102800 -2.241700 11.827400 -5.767529 -4.755511 0.082484 -76.870886 10.434233 28.529353 9.040421 -18.920029 -2.271610 -0.875070 -1.659141 7.897935 13.661867 29.643892 7.559900 -7.125000 0.000000 0.000000 -20.472700 60.980100 -8.166200 4.507166 5.234051 1.197194 71.080737 -6.838358 42.364961 -28.236987 35.928961 -10.615478 -0.639755 -0.100491 -10.931755 -18.157270 17.042981 -5.295300 7.125000 0.000000 0.000000 6.865600 -12.214300 5.296700 
